<svg width="16" height="16" viewBox="0 0 16 16" fill="none" xmlns="http://www.w3.org/2000/svg">
<path d="M8 11C7.85166 11 7.70666 11.044 7.58332 11.1264C7.45999 11.2088 7.36386 11.3259 7.30709 11.463C7.25032 11.6 7.23547 11.7508 7.26441 11.8963C7.29335 12.0418 7.36478 12.1754 7.46967 12.2803C7.57456 12.3852 7.7082 12.4567 7.85368 12.4856C7.99917 12.5145 8.14997 12.4997 8.28701 12.4429C8.42406 12.3861 8.54119 12.29 8.6236 12.1667C8.70601 12.0433 8.75 11.8983 8.75 11.75C8.75 11.5511 8.67098 11.3603 8.53033 11.2197C8.38968 11.079 8.19891 11 8 11Z" fill="white"/>
<path d="M7.5 5.5H8.5V10H7.5V5.5Z" fill="white"/>
<path d="M14.5001 14.5001H1.50006C1.41414 14.5002 1.32962 14.4783 1.25466 14.4363C1.17969 14.3943 1.11682 14.3337 1.07209 14.2603C1.02737 14.187 1.00231 14.1033 0.999325 14.0174C0.996342 13.9316 1.01554 13.8464 1.05506 13.7701L7.55506 1.27007C7.59702 1.18817 7.66077 1.11943 7.73929 1.07144C7.8178 1.02344 7.90804 0.998047 8.00006 0.998047C8.09209 0.998047 8.18233 1.02344 8.26084 1.07144C8.33936 1.11943 8.40311 1.18817 8.44506 1.27007L14.9451 13.7701C14.9846 13.8464 15.0038 13.9316 15.0008 14.0174C14.9978 14.1033 14.9728 14.187 14.928 14.2603C14.8833 14.3337 14.8204 14.3943 14.7455 14.4363C14.6705 14.4783 14.586 14.5002 14.5001 14.5001ZM2.32506 13.5001H13.6751L8.00006 2.58507L2.32506 13.5001Z" fill="white"/>
</svg>
